<?xml version="1.0" encoding="iso-8859-1"?>
<!-- Generator: Adobe Illustrator 19.0.0, SVG Export Plug-In . SVG Version: 6.00 Build 0)  -->
<svg version="1.1" id="Capa_1" xmlns="http://www.w3.org/2000/svg" xmlns:xlink="http://www.w3.org/1999/xlink" x="0px" y="0px"
	 viewBox="0 0 512 512" style="enable-background:new 0 0 512 512;" xml:space="preserve">
<g>
	<g>
		<path d="M429.471,131.365c14.835-36.24,14.518-75.116,14.483-77.503l-0.165-11.07l-10.587-3.237
			c-3.319-1.014-81.852-24.445-130.503,12.147c-14.723,11.073-24.868,26.383-31.863,42.451V53.497L244.549,0l-27.283,13.406
			l23.17,47.156v67.073c-22.434-15.706-48.988-24.331-76.454-24.331c-76.033,0-137.89,65.003-137.89,144.901
			c0,60.971,20.286,126.208,55.656,178.983C117.872,481.087,162.752,512,204.879,512c19.884,0,37.03-3.393,51.122-10.099
			C270.091,508.607,287.238,512,307.121,512c42.127,0,87.007-30.913,123.131-84.812c35.37-52.774,55.656-118.011,55.656-178.983
			C485.908,200.301,463.666,157.759,429.471,131.365z M320.971,75.995c27.225-20.478,71.502-14.459,92.119-10.114
			c-1.527,21.351-8.001,66.592-35.32,87.139c-27.265,20.507-71.354,14.161-91.692,9.705
			C287.612,138.096,295.444,95.195,320.971,75.995z M404.999,410.265c-29.937,44.668-66.528,71.336-97.878,71.336
			c-18.064,0-32.557-3.327-43.078-9.888l-8.043-5.016l-8.043,5.016c-10.521,6.561-25.015,9.888-43.079,9.888
			c-31.35,0-67.94-26.668-97.878-71.337c-32.1-47.894-50.51-106.962-50.51-162.058c0-63.136,48.221-114.502,107.491-114.502
			c30.657,0,59.943,14.02,80.35,38.465l11.668,13.977l0.224-0.269l9.811,3.089c1.881,0.592,28.081,8.644,59.288,8.644
			c23.483,0,49.802-4.562,70.718-20.293c7.213-5.425,13.334-11.884,18.541-18.953c24.912,20.988,40.927,53.459,40.927,89.843
			C455.508,303.303,437.099,362.371,404.999,410.265z"/>
	</g>
</g>
<g>
</g>
<g>
</g>
<g>
</g>
<g>
</g>
<g>
</g>
<g>
</g>
<g>
</g>
<g>
</g>
<g>
</g>
<g>
</g>
<g>
</g>
<g>
</g>
<g>
</g>
<g>
</g>
<g>
</g>
</svg>
