<?xml version="1.0" encoding="iso-8859-1"?>
<!-- Generator: Adobe Illustrator 18.0.0, SVG Export Plug-In . SVG Version: 6.00 Build 0)  -->
<!DOCTYPE svg PUBLIC "-//W3C//DTD SVG 1.1//EN" "http://www.w3.org/Graphics/SVG/1.1/DTD/svg11.dtd">
<svg version="1.1" id="Capa_1" xmlns="http://www.w3.org/2000/svg" xmlns:xlink="http://www.w3.org/1999/xlink" x="0px" y="0px"
	 viewBox="0 0 50.477 50.477" style="enable-background:new 0 0 50.477 50.477;" xml:space="preserve">
<path d="M49.193,33.417l-1.143-1.29c-4.288-4.85-9.868-7.75-15.895-8.323c-0.232-6.49-2.829-12.375-7.383-16.654
	C19.968,2.636,13.501,0.383,6.527,0.811L4.806,0.917c-2.579,0.158-4.491,2.07-4.649,4.65L0.051,7.288
	C-0.575,17.465,4.602,26.43,13.334,30.575c-0.513,0.495-1.015,1.008-1.496,1.552l-1.142,1.29c-1.713,1.937-1.713,4.641,0,6.576
	l1.142,1.291c4.81,5.439,11.24,8.435,18.106,8.434c6.866,0,13.297-2.995,18.105-8.433l1.143-1.291
	C50.905,38.057,50.905,35.353,49.193,33.417z M46.552,33.452l1.143,1.291c0.411,0.464,0.652,0.991,0.739,1.531
	c-4.986,4.65-12.82,4.558-17.678-0.3c-4.644-4.644-11.614-5.56-17.188-2.772c0.662-0.729,1.356-1.408,2.079-2.036l0.144-0.123
	c3.824-3.267,8.465-5.113,13.255-5.326c0.015-0.001,0.03-0.001,0.045-0.001c0.675-0.029,1.353-0.026,2.032,0.011l0.057,0.003
	C36.999,26.067,42.419,28.777,46.552,33.452z M8.189,2.76c5.813,0,11.17,2.047,15.214,5.847c4.123,3.874,6.498,9.199,6.753,15.088
	c-0.042-0.001-0.084-0.001-0.126-0.001c-0.028,0-0.057-0.002-0.085-0.002c-0.639,0-1.272,0.035-1.902,0.086
	c-0.062,0.005-0.124,0.01-0.186,0.015c-2.494,0.224-4.911,0.847-7.195,1.842c-2.12-2.268-2.6-5.131-3.082-8.16
	c-0.317-1.987-0.645-4.043-1.453-6.027c-1.687-4.137-5.135-7.272-9.214-8.649C7.339,2.778,7.765,2.76,8.189,2.76z M2.047,7.411
	L2.152,5.69c0.039-0.638,0.255-1.195,0.594-1.645c4.999,0.186,9.594,3.412,11.528,8.158c0.721,1.771,1.03,3.711,1.329,5.588
	c0.482,3.027,0.982,6.145,3.174,8.763c-1.333,0.726-2.609,1.587-3.817,2.573C6.506,25.508,1.454,17.051,2.047,7.411z M29.944,47.718
	c-6.285,0.001-12.184-2.755-16.608-7.758l-1.142-1.292c-0.422-0.477-0.663-1.02-0.743-1.576c4.971-4.625,13.057-4.535,17.889,0.297
	c2.872,2.873,6.646,4.309,10.419,4.309c2.286,0,4.569-0.536,6.655-1.59C42.007,45.014,36.166,47.718,29.944,47.718z"/>
<g>
</g>
<g>
</g>
<g>
</g>
<g>
</g>
<g>
</g>
<g>
</g>
<g>
</g>
<g>
</g>
<g>
</g>
<g>
</g>
<g>
</g>
<g>
</g>
<g>
</g>
<g>
</g>
<g>
</g>
</svg>
