<?xml version="1.0" encoding="iso-8859-1"?>
<!-- Generator: Adobe Illustrator 19.0.0, SVG Export Plug-In . SVG Version: 6.00 Build 0)  -->
<svg version="1.1" id="Capa_1" xmlns="http://www.w3.org/2000/svg" xmlns:xlink="http://www.w3.org/1999/xlink" x="0px" y="0px"
	 viewBox="0 0 511.884 511.884" style="enable-background:new 0 0 511.884 511.884;" xml:space="preserve">
<g>
	<g>
		<g>
			<path d="M158.666,401.047c-2.295-2.119-4.59-4.149-6.621-6.179c-3.178-2.913-6.444-5.914-9.71-8.916
				c-14.784-12.414-28.031-26.55-39.46-42.108c-4.911-7.299-8.746-15.267-11.387-23.658L8.774,375.359v31.691l65.766-43.785
				c1.932-1.327,4.319-1.813,6.616-1.347s4.306,1.844,5.568,3.819c1.302,1.939,1.773,4.318,1.309,6.607s-1.826,4.297-3.781,5.575
				L8.774,428.324v22.863l92.248-61.44c2.618-1.735,5.962-1.941,8.773-0.542c2.811,1.4,4.662,4.193,4.856,7.327
				c0.193,3.134-1.3,6.134-3.917,7.869L8.774,472.462v21.716h1.766l116.966-77.948c4.047-2.682,9.501-1.575,12.183,2.471
				c2.682,4.047,1.575,9.501-2.471,12.182l-94.897,63.294H81.16l64-42.637c2.618-1.735,5.962-1.941,8.773-0.542
				s4.662,4.193,4.856,7.327c0.194,3.134-1.3,6.134-3.917,7.869l-41.931,27.983h48.375l25.159-75.211
				c-9.879-3.963-18.946-9.708-26.748-16.949L158.666,401.047z"/>
			<path d="M440.644,71.482l24.664-24.662c3.378-3.374,5.276-7.952,5.276-12.726s-1.898-9.352-5.276-12.726
				c-7.117-6.807-18.33-6.809-25.448-0.004l-24.863,24.861c0.467,7.595,3.596,14.782,8.836,20.298
				C428.558,70.339,434.605,72.123,440.644,71.482z"/>
			<path d="M354.179,58.471c5.827,3.845,12.942,5.219,19.781,3.821l31.736-31.735c7.017-7.033,7.017-18.419,0-25.453
				c-7.121-6.806-18.336-6.806-25.457,0l-35.442,35.441C345.688,47.448,349.015,53.806,354.179,58.471z"/>
			<path d="M498.908,109.223c-6.004-7.169-16.496-8.55-24.151-3.179l-32.76,22.951c0.887,6.863,4.206,13.18,9.354,17.803
				c6.931,4.421,15.435,5.626,23.321,3.307l20.756-14.526c0.856-0.592,1.651-1.269,2.371-2.022v0
				C504.43,126.963,504.912,116.392,498.908,109.223z"/>
			<path d="M295.406,293.439c-0.471,1.293-1.125,2.512-1.942,3.619c-1.747,2.058-2.604,4.725-2.383,7.415v0.177
				c0.585,3.448,3.087,6.259,6.444,7.239c2.986,0.986,6.273,0.121,8.386-2.207c4.518-5.084,7.462-11.371,8.474-18.097
				c-5.319,1.286-10.771,1.938-16.243,1.942C297.171,293.527,296.377,293.439,295.406,293.439z"/>
			<path d="M293.64,275.695c6.357,0.573,12.766-0.056,18.89-1.854c-1.492-4.062-3.738-7.806-6.621-11.034
				c-2.114-2.328-5.4-3.193-8.386-2.207c-3.357,0.98-5.859,3.791-6.444,7.239v0.177c-0.185,2.686,0.668,5.34,2.383,7.415
				C293.552,275.518,293.552,275.607,293.64,275.695z"/>
			<path d="M408.752,217.786L408.752,217.786l-46.257,32.397c-0.545,0.353-1.141,0.621-1.766,0.794c0,0.088-0.088,0.088-0.177,0.088
				c-0.968,0.452-2.021,0.693-3.09,0.706c-0.067-0.009-0.129-0.04-0.177-0.088c-0.353,0-0.706-0.177-1.059-0.177
				c-0.312-0.109-0.64-0.169-0.971-0.177c-0.53-0.177-0.971-0.265-1.5-0.441c-0.214-0.178-0.452-0.327-0.706-0.441l-1.059-0.794
				c-0.265-0.265-0.617-0.353-0.883-0.618l-0.088-0.088c-0.15-0.186-0.27-0.394-0.353-0.618c-0.133-0.066-0.253-0.156-0.353-0.265
				c0-0.024-0.009-0.046-0.025-0.063c-0.017-0.017-0.039-0.026-0.063-0.025c0-0.024-0.009-0.046-0.025-0.063
				s-0.039-0.026-0.063-0.025c-0.184-0.337-0.331-0.692-0.441-1.059c-0.288-0.505-0.524-1.037-0.706-1.589
				c-0.174-0.512-0.263-1.048-0.265-1.589c-0.071-0.556-0.101-1.117-0.088-1.677c0.095-0.572,0.242-1.133,0.441-1.677
				c0.083-0.528,0.262-1.037,0.529-1.501c0.293-0.54,0.648-1.044,1.059-1.501c0.176-0.314,0.383-0.61,0.619-0.883
				c0.177-0.177,0.353-0.177,0.529-0.353c0.154-0.198,0.331-0.376,0.529-0.53l98.781-69.12c-3.814-1.296-7.393-3.204-10.594-5.65
				c-6.666-5.395-11.53-12.693-13.946-20.921l-97.81,68.502c-0.046,0.05-0.109,0.082-0.177,0.088l-0.441,0.265v0.088
				c-1.589,1.325-3.58,2.072-5.649,2.119c-3.343,0.048-6.415-1.835-7.888-4.837c-1.473-3.002-1.082-6.584,1.002-9.199v-0.088
				c0.265-0.265,0.353-0.618,0.619-0.883L425.082,87.05c-4.864-1.546-9.347-4.103-13.153-7.503
				c-5.428-5.098-9.442-11.515-11.652-18.626L290.815,170.382c-3.437,3.437-9.01,3.437-12.447,0c-3.437-3.437-3.437-9.01,0-12.447
				l5.385-5.385v-0.088l73.534-73.445c-5.05-1.24-9.795-3.492-13.948-6.621c-5.761-4.642-10.179-10.737-12.801-17.655l-99.31,99.399
				c-0.664,0.64-1.442,1.149-2.295,1.501c-3.498,8.491-7.815,16.621-12.888,24.276c-11.914,17.909-18.888,38.647-20.215,60.116
				c0,4.875-3.952,8.828-8.828,8.828c-4.875,0-8.828-3.952-8.828-8.828c1.219-24.986,9.248-49.163,23.218-69.914
				c11.975-17.873,18.926-38.636,20.126-60.116c0-0.353,0.088-0.794,0.088-1.148c1.403-12.154-1.3-24.429-7.68-34.869
				c-2.915-5.154-6.85-9.66-11.565-13.241c-2.648-1.796-5.529-3.222-8.563-4.237c-1.611-0.588-3.41,0.087-4.237,1.589
				c-8.345,15.127-15.687,30.786-21.981,46.874c-2.56,6.356-5.297,12.8-8.121,19.332c-5.739,13.065-10.682,27.365-15.448,41.137
				c-6.405,19.853-14.193,39.233-23.306,57.997c-9.687,16.169-15.517,34.354-17.037,53.142c-0.507,9.251,0.116,18.53,1.854,27.63
				v0.177c2.019,10.537,6.067,20.58,11.918,29.572c10.774,14.341,23.121,27.428,36.81,39.018c3.354,3.001,6.621,6.003,9.887,9.092
				c2.12,1.942,4.238,3.884,6.445,6.003l1.147,1.059c20.223,18.877,49.892,23.56,74.946,11.829
				c20.51-9.334,40.054-20.658,58.351-33.81c15.963-12.697,30.391-27.214,42.989-43.255c22.057-26.849,46.685-51.477,73.534-73.534
				c0.088-0.088,0.177-0.088,0.177-0.177c0.353-0.265,0.618-0.53,0.883-0.706l8.387-5.826c-3.277-1.342-6.34-3.157-9.092-5.385
				C415.59,232.893,411.012,225.765,408.752,217.786z M251.533,382.421c-4.136,2.569-8.903,3.944-13.772,3.972
				c-4.916,0.019-9.731-1.392-13.859-4.061c-10.912-7.066-18.833-17.911-22.246-30.455c-0.583-2.381-0.996-4.8-1.236-7.239
				c-0.067-0.199-0.097-0.408-0.088-0.618c-1.263-10.166,0.487-20.48,5.032-29.661c4.434-9.014,13.801-14.53,23.834-14.036
				c10.296,0.178,19.556,6.306,23.746,15.713c0.088,0.088,0.088,0.265,0.177,0.353c2.826,6.89,2.731,14.633-0.264,21.451
				c0,0.088-0.088,0.088-0.088,0.177c6.109,4.352,10.161,11.023,11.21,18.45c-0.012,0.097,0.02,0.194,0.088,0.265
				C265.25,367.006,260.358,377.031,251.533,382.421z M319.064,321.422c-4.793,5.461-11.713,8.583-18.979,8.563
				c-2.6-0.035-5.183-0.421-7.68-1.148c-9.995-2.961-17.343-11.482-18.803-21.804c0.012-0.097-0.02-0.194-0.088-0.265
				c-0.801-7.353,1.359-14.722,6.002-20.48c0-0.088-0.088-0.088-0.088-0.177c-4.579-5.754-6.703-13.081-5.914-20.392
				c0.068-0.07,0.1-0.168,0.088-0.265c1.46-10.322,8.808-18.843,18.803-21.804c9.572-2.976,19.999-0.075,26.659,7.415
				c6.778,7.643,11.194,17.087,12.712,27.189c0,0.177,0.087,0.441,0.087,0.706c0.341,2.429,0.547,4.875,0.617,7.327
				C332.48,299.251,327.703,311.758,319.064,321.422z"/>
			<path d="M463.973,179.139l-39.764,27.83c0.872,6.742,4.025,12.982,8.935,17.683c5.4,3.906,12.143,5.478,18.713,4.362
				l29.269-20.487c0.329-0.228,0.671-0.435,1.026-0.621c1.305-0.679,2.495-1.559,3.526-2.608c5.186-5.624,5.593-14.158,0.966-20.25
				C481.638,177.674,471.943,175.147,463.973,179.139z"/>
			<path d="M236.437,331.221c1.146-2.4,1.335-5.146,0.53-7.68c-0.087-0.088-0.087-0.088-0.087-0.177
				c-1.404-3.284-4.64-5.406-8.211-5.385h-0.001h-0.175c-3.083-0.134-5.955,1.562-7.327,4.326
				c-1.908,3.875-3.104,8.061-3.532,12.359c6.411,0.113,12.787-0.965,18.804-3.178V331.221z"/>
			<path d="M246.413,358.41c-0.545-2.584-2.062-4.859-4.238-6.356c-1.073-0.868-2.023-1.877-2.824-3.001
				c-6.055,1.947-12.357,3.017-18.715,3.178c2.719,6.236,7.198,11.543,12.888,15.272c2.633,1.735,6.055,1.7,8.651-0.088
				c3.046-1.842,4.736-5.292,4.326-8.828C246.453,358.539,246.422,358.477,246.413,358.41z"/>
			<path d="M296.464,467.23c-5.167-5.297-12.255-8.283-19.655-8.279l-0.026-0.051c-1.546-7.334-6.017-13.72-12.379-17.683
				c-8.933-5.386-20.194-5.037-28.776,0.892c-8.351,5.527-12.689,15.434-11.086,25.319c1.6,9.844,5.962,19.031,12.578,26.494
				c0.191,0.206,0.392,0.403,0.603,0.589c9.818,11.212,24.055,17.56,38.957,17.37c0.828,0,1.655-0.018,2.483-0.056
				c10.003-0.455,18.813-6.727,22.517-16.03c4.049-9.611,2.093-20.703-5-28.349L296.464,467.23z M246.242,476.643
				c-2.144-3.712-3.591-7.785-4.269-12.018c-0.495-3.106,0.9-6.209,3.552-7.9v0c1.557-1.049,3.389-1.616,5.267-1.629
				c1.612,0.002,3.192,0.446,4.569,1.284c2.229,1.531,3.755,3.887,4.241,6.547c0.022,0.095,0.088,0.174,0.112,0.269
				C256.099,468.478,251.53,473.039,246.242,476.643z M285.352,489.087L285.352,489.087c-1.112,2.947-3.87,4.951-7.017,5.099
				c-6.77,0.315-13.483-1.362-19.31-4.822c5.053-3.879,9.551-8.433,13.366-13.535c1.292,0.406,2.627,0.661,3.979,0.758
				c2.707-0.053,5.327,0.954,7.302,2.806l0.147,0.155C286.121,482.168,286.718,485.877,285.352,489.087z"/>
			<path d="M364.929,387.475c-10.179-2.301-20.763,1.572-27.052,9.901c-4.411,6.026-6.178,13.587-4.893,20.943l-0.006,0.093
				c-6.964,2.801-12.483,8.322-15.281,15.287c-3.743,9.739-1.432,20.768,5.905,28.185c6.891,7.265,17.404,9.808,26.854,6.496
				c12.265-4.258,22.531-12.887,28.836-24.237v-0.004c1.156-2.188,2.156-4.455,2.994-6.784c0.109-0.212,0.194-0.424,0.284-0.645
				c3.566-9.543,4.29-19.914,2.084-29.86C382.455,397.078,374.739,389.499,364.929,387.475z M344.662,451.708
				c-2.973,1.016-6.265,0.183-8.397-2.125c-2.515-2.523-3.321-6.284-2.06-9.616c1.141-2.454,3.195-4.366,5.724-5.328
				c1.224-0.594,2.374-1.329,3.427-2.19c5.443,3.315,11.314,5.87,17.45,7.594C356.664,445.408,351.056,449.46,344.662,451.708z
				 M367.901,423.597c-6.239-1.414-12.161-3.972-17.467-7.546c-0.014-0.098,0.018-0.198,0.003-0.295
				c-0.523-2.67,0.019-5.439,1.509-7.716c1.706-2.258,4.386-3.567,7.216-3.526c0.678,0,1.354,0.071,2.017,0.211
				c3.094,0.582,5.549,2.943,6.25,6.013C368.375,414.959,368.535,419.318,367.901,423.597z"/>
		</g>
	</g>
</g>
<g>
</g>
<g>
</g>
<g>
</g>
<g>
</g>
<g>
</g>
<g>
</g>
<g>
</g>
<g>
</g>
<g>
</g>
<g>
</g>
<g>
</g>
<g>
</g>
<g>
</g>
<g>
</g>
<g>
</g>
</svg>
