<?xml version="1.0" encoding="iso-8859-1"?>
<!-- Generator: Adobe Illustrator 19.0.0, SVG Export Plug-In . SVG Version: 6.00 Build 0)  -->
<svg version="1.1" id="Capa_1" xmlns="http://www.w3.org/2000/svg" xmlns:xlink="http://www.w3.org/1999/xlink" x="0px" y="0px"
	 viewBox="0 0 512 512" style="enable-background:new 0 0 512 512;" xml:space="preserve">
<g>
	<g>
		<path d="M341.041,46.871c-6.407-5.254-15.858-4.317-21.109,2.088C301.161,71.853,284.358,93.016,271,116.59V15.201
			c0-8.284-6.716-15-15-15c-8.285,0-15,6.716-15,15v101.39c-13.359-23.575-30.161-44.737-48.932-67.631
			c-5.253-6.406-14.703-7.343-21.109-2.088c-6.406,5.252-7.342,14.704-2.089,21.11c42.478,51.808,70.51,90.991,71.302,157.269
			l-24.378,47.865c-7.16,14.06-6.66,30.61,1.339,44.275c7.805,13.333,21.59,21.663,36.877,22.284c0.66,0.026,1.324,0.04,1.99,0.04
			c0.675,0,1.348-0.014,2.013-0.041c15.287-0.627,29.072-8.963,36.874-22.3c7.993-13.662,8.489-30.21,1.329-44.264l-24.388-47.865
			c0.795-66.274,28.826-105.454,71.302-157.262C348.383,61.575,347.447,52.123,341.041,46.871z"/>
	</g>
</g>
<g>
	<g>
		<path d="M497,269.622H362.885c-28.771,0-39.215,23.269-39.215,38.91c0,37.098-30.394,67.278-67.753,67.278
			c-37.99,0-67.75-29.324-67.75-66.771c-0.011-15.845-10.465-39.417-39.215-39.417H15c-8.284,0-15,6.716-15,15v142.161h512V284.623
			C512,276.338,505.284,269.622,497,269.622z"/>
	</g>
</g>
<g>
	<g>
		<path d="M0,456.783L0,456.783v10.08C0,491.64,20.159,511.8,44.938,511.8h422.123c24.779,0,44.938-20.159,44.938-44.938v-10.079H0z
			"/>
	</g>
</g>
<g>
</g>
<g>
</g>
<g>
</g>
<g>
</g>
<g>
</g>
<g>
</g>
<g>
</g>
<g>
</g>
<g>
</g>
<g>
</g>
<g>
</g>
<g>
</g>
<g>
</g>
<g>
</g>
<g>
</g>
</svg>
