<?xml version="1.0" encoding="iso-8859-1"?>
<!-- Generator: Adobe Illustrator 19.0.0, SVG Export Plug-In . SVG Version: 6.00 Build 0)  -->
<svg version="1.1" id="Capa_1" xmlns="http://www.w3.org/2000/svg" xmlns:xlink="http://www.w3.org/1999/xlink" x="0px" y="0px"
	 viewBox="0 0 512.001 512.001" style="enable-background:new 0 0 512.001 512.001;" xml:space="preserve">
<g>
	<g>
		<path d="M486.608,437.764c-9.092-6.72-19.313-12.008-29.113-17.615c-4.343-2.485-8.829-4.87-12.804-7.934
			c-2.31-1.78-4.153-4.058-6.454-5.542c14.971-21.446,21.093-49.282,15.841-75.394c-6.292-31.282-30.553-53.865-43.036-82.349
			c-1.215-2.772-5.549-3.653-7.937-2.081c-5.283,3.479-8.728,8.7-11.62,14.241c-1.126-3.81-2.714-7.55-4.251-11.175
			c-4.038-9.52-9.079-18.488-15.461-26.64c-11.483-14.667-26.957-29.419-44.199-36.984c-3.831-1.681-8.296,0.248-8.412,4.827
			c-0.029,1.132-0.087,2.249-0.159,3.36c-1.517-2.626-3.178-5.18-4.871-7.685c-5.536-8.195-11.833-15.893-19.244-22.47
			c-7.813-6.934-16.524-12.145-25.953-16.557c-8.841-4.137-16.868-10.379-26.457-12.742c-3.245-0.8-7.676,1.667-7.236,5.512
			c0.339,2.959,0.552,5.919,0.674,8.881c-4.907-6.829-11.121-12.54-17.746-17.664c-13.445-10.399-28.827-16.871-43.049-25.889
			c-2.312-1.466-6.14-0.516-7.407,2.001c-7.847-7.028-20.644-10.986-28.404-5.957c-0.94,0.609-1.729,1.303-2.412,2.051
			c-0.45-1.653-0.907-3.285-1.341-4.883c-2.92-10.743-6.692-21.237-10.519-31.684c-6.98-19.049-14.89-38.511-28.909-53.561
			c-1.339-1.438-4.081-1.519-5.406,0c-11.908,13.656,0.607,38.203,6.86,51.709c0.726,1.568,1.472,3.131,2.206,4.697
			c-1.97-2.978-4.023-5.902-6.188-8.77c-6.333-8.386-12.623-16.859-19.711-24.631c-6.81-7.468-14.084-14.672-22.209-20.715
			c-5.459-4.06-12.629-8.681-19.546-5.532c-1.535,0.699-2.207,2.852-1.783,4.38C35.13,32.16,48.737,46.488,61.667,58.142
			c4.476,4.034,9.128,7.878,13.827,11.661C53.211,58.11,28.875,48.119,3.562,49.068c-3.012,0.113-4.817,3.871-2.526,6.099
			c8.084,7.862,19.222,11.92,29.029,17.139c12.746,6.783,25.324,13.991,37.684,21.454c11.861,7.162,23.584,14.604,34.983,22.481
			c5.96,4.118,11.675,8.274,17.008,13.191c1.179,1.088,2.319,2.148,3.458,3.171c-4.38,0.172-8.742,0.927-13.031,2.434
			c-2.538,0.892-4.063,3.28-3.401,5.99c1.794,7.344,7.547,14.209,12.428,19.788c0.66,0.754,2.028,2.249,3.675,3.729
			c-1.765,0.314-3.545,0.654-5.349,1.02c-3.073,0.623-4.838,4.88-3.042,7.477c4.65,6.72,10.785,12.178,16.362,18.099
			c5.19,5.51,9.505,11.351,13.296,17.881c3.408,5.869,7.587,13.846,13.412,18.568c-2.645,0.359-5.29,0.696-7.955,0.905
			c-4.249,0.333-7.822,4.921-5.171,9.01c3.48,5.367,8.132,10.049,12.098,15.074c4.032,5.108,7.802,10.426,11.425,15.83
			c4.932,7.356,9.379,15.026,14.385,22.331c4.558,6.651,9.621,13.576,15.928,18.676c1.334,1.079,2.977,2.218,4.744,3.149
			c-4.709,3.823-8.833,8.271-11.855,13.502c-1.952,3.378-0.121,7.61,3.545,8.713c18.193,5.473,30.729,21.17,44.31,33.509
			c4.696,4.267,12.148,10.739,19.889,14.256c-1.82,0.742-3.595,1.59-5.301,2.648c-2.61,1.619-3.902,5.344-2.118,8.078
			c14.164,21.717,33.241,39.989,58.448,47.821c15.24,4.735,31.593,5.435,47.413,4.28c13.409-0.98,27.734-2.238,40.439-6.938
			c3.246-1.201,7.23-4.869,10.803-4.873c3.411-0.004,4.846,4.312,6.861,6.64c5.28,6.1,12.234,10.476,17.56,16.53
			c7.026,7.987,13.19,16.686,19.8,25.009c5.831,7.342,12.381,16.58,21.642,19.704c15.944,5.379,34.222-11.767,37.154-26.702
			C514.833,458.228,498.083,446.246,486.608,437.764z M330.423,199.966c12.78,7.147,24.023,18.801,32.608,30.004
			c5.395,7.04,9.723,14.968,13.428,23.008c3.169,6.876,5.002,14.351,8.667,20.895c-5.103,9.271-11.707,17.645-16.74,26.971
			c-9.912,18.368-9.417,38.213-3.021,56.868c-2.972-2.063-6.035-4.043-8.462-6.537c-5.986-6.149-10.866-13.295-16.664-19.624
			c-6.444-7.034-13.405-13.777-20.904-19.806c-1.768-3.236-3.832-6.253-5.189-9.736c-1.7-4.366-2.904-8.835-3.461-13.496
			c-1.104-9.238-0.724-18.865,1.199-27.971C316.185,240.183,328.931,220.938,330.423,199.966z M247.653,148.668
			c5.458,2.38,10.552,5.685,15.897,8.312c9.114,4.479,17.473,9.481,24.87,16.518c6.669,6.344,12.283,13.603,17.316,21.289
			c3.417,5.217,6.657,10.615,10.912,15.124c-1.54,6.493-3.686,12.846-6.196,19.365c-4.53,11.765-8.999,23.402-10.587,35.988
			c-0.957,7.585-1.162,15.331-0.219,22.933c-5.473-6.562-11.465-12.726-17.135-18.449c-6.321-6.38-14.041-11.172-20.435-17.237
			c-4.91-4.659-7.817-13.374-10.145-19.474c-3.231-8.466-4.853-17.454-5.247-26.489
			C245.838,187.165,249.156,167.946,247.653,148.668z M178.092,126.051c0.057-2.322,0.23-4.791,0.303-7.27
			c11.152,5.353,22.11,12.597,31.587,19.895c5.986,4.609,11.739,9.822,16.246,15.917c5.176,7.001,9.432,14.926,8.978,23.667
			c-0.586,11.283-1.12,22.62,0.157,33.879c0.372,3.281,0.925,6.497,1.643,9.663c-3.931-4.632-8.057-9.061-11.702-13.351
			c-9.785-11.516-20.294-22.484-32.828-31.046c-0.958-0.654-1.936-1.278-2.922-1.888c-2.778-4.205-6.036-8.003-7.865-12.789
			c-2.214-5.793-3.142-11.996-3.515-18.153C177.802,138.407,177.94,132.223,178.092,126.051z M143.991,109.835
			c4.13-5.275,16.732,5.115,22.852,10.233c0.055,2.713,0.159,5.422,0.152,8.059c-0.018,6.046,0.059,12.094,0.621,18.112
			c-1.852-1.366-3.969-2.449-5.583-3.278c-5.104-2.621-10.445-4.921-15.907-6.704c0.015-3.483-1.057-7.386-1.519-10.182
			C144.013,122.481,141.471,113.054,143.991,109.835z M95.611,25.113c10.477,13.841,16.639,30.696,22.318,46.941
			c3.384,9.68,6.633,19.415,9.438,29.281c0.797,2.804,1.444,5.663,2.063,8.532c-3.012-5.869-6.217-11.66-8.945-17.528
			c-4.137-8.9-7.968-17.92-12.195-26.78C102.707,53.855,94.716,38.899,95.611,25.113z M69.577,54.798
			C57.776,44.425,45.332,31.892,39.313,16.981c4.759,1.188,11.381,7.528,13.532,9.436c6.712,5.953,12.889,12.553,18.671,19.406
			c6.825,8.089,13.083,16.83,19.15,25.489c0.316,0.452,0.606,0.917,0.914,1.373C84.233,66.691,76.603,60.974,69.577,54.798z
			 M110.742,110.719c-11.41-8.357-23.523-15.839-35.58-23.217c-12.273-7.509-24.82-14.7-37.699-21.123
			c-6.962-3.472-14.476-6.239-21.437-9.89c24.403,2.437,47.351,15.559,67.951,28.02c11.572,6.999,25.059,14.177,33.133,25.332
			c4.42,6.106,7.888,12.243,12.468,17.703c0.01,0.035,0.021,0.069,0.03,0.104c0.067,0.244,0.134,0.489,0.202,0.734
			C124.006,121.977,118.015,116.047,110.742,110.719z M118.528,142.387c8.561-1.812,18.696,1.345,26.337,4.098
			c4.853,1.748,9.444,3.947,14.014,6.322c3.392,1.763,7.041,2.274,9.628,5.328c1.457,1.721,2.757,8.958,4.262,9.476
			c-5.388-1.856-10.954-3.207-16.56-4.078c-7.984-1.24-15.439-1.234-22.93-0.473c-0.917-3.839-5.135-7.894-7.142-10.325
			C123.361,149.374,120.784,146.011,118.528,142.387z M151.383,198.261c-5.937-9.697-14.129-18.723-22.907-26.4
			c9.293-2.289,20.986-0.096,29.267,1.831c11.998,2.792,22.893,7.286,32.748,14.745c10.81,8.182,19.908,18.44,28.523,28.836
			c4.714,5.687,9.376,12.597,14.8,18.457c-11.654-5.275-23.965-9.036-36.786-9.971c-8.286-0.604-16.598-0.087-24.884,0.254
			c-0.148-0.25-0.329-0.48-0.549-0.675c-4.228-3.751-8.359-6.901-11.512-11.724C156.858,208.682,154.456,203.281,151.383,198.261z
			 M202.129,297.097c-4.692-5.357-8.64-11.417-12.409-17.446c-4.684-7.492-9.151-15.104-14.115-22.42
			c-4.386-6.464-9.094-13.803-14.555-19.999c4.363-0.449,9.036-0.219,12.646-0.335c7.779-0.25,15.557-0.671,23.331-0.061
			c15.782,1.239,30.934,7.716,44.511,15.579c13.141,7.609,24.977,17.227,35.45,28.203c3.79,3.972,7.369,8.419,11.037,12.819
			c-8.137-2.834-16.692-4.226-25.478-3.489c-13.102,1.098-25.902,4.806-37.934,10.017c-4.063,1.76-8.179,3.771-12.138,6.089
			C208.37,304.513,204.763,300.105,202.129,297.097z M240.399,353.781c-10.741-10.37-21.344-21.128-34.84-27.436
			c8.177-9.349,20.763-15.29,32.06-19.251c13.887-4.87,29.25-8.239,43.708-3.992c17.998,5.288,33.372,18.338,46.285,31.485
			c6.922,7.048,12.762,14.935,19.4,22.215c0.727,0.797,1.482,1.549,2.249,2.283c-16.447-2.399-33.377-0.978-49.123,4.424
			c-8.016,2.75-15.298,6.681-22.598,10.927c-0.632,0.368-1.257,0.715-1.883,1.068C261.043,374.451,250.467,363.502,240.399,353.781z
			 M402.12,423.083c-10.1,5.386-21.109,7.32-32.35,8.76c-14.498,1.857-29.567,2.86-44.074,0.556
			c-25.776-4.094-45.736-19.208-60.451-39.822c4.916-1.998,10.156-3.378,14.835-6.002c7.027-3.941,13.724-8.264,21.322-11.069
			c14.655-5.408,30.683-7.291,46.158-4.926c14.782,2.26,28.997,8.026,40.477,17.704c9.555,8.056,17.059,18.05,25.348,27.314
			C409.88,418.427,406.122,420.949,402.12,423.083z M382.765,371.297c-4.009-10.736-8.781-21.39-10.488-32.797
			c-1.864-12.458,1.021-23.658,7.172-34.495c4.994-8.797,11.44-16.745,16.135-25.704c2.57-4.904,4.859-11.762,8.529-16.76
			c10.347,20.821,26.374,38.58,34.434,60.487c6.951,18.892,6.481,39.631-0.362,58.482c-3.87,10.661-9.966,20.533-17.822,28.685
			C410.113,393.971,397.8,380.553,382.765,371.297z M497.237,478.952c-3.628,5.603-10.087,13.087-17.552,12.187
			c-7.727-0.931-14.546-11.666-19.029-17.259c-5.611-7.001-10.845-14.322-16.739-21.093c-4.785-5.496-10.147-9.919-15.698-14.597
			c-2.829-2.384-5.627-4.803-8.449-7.193c-0.945-0.8-2.074-1.609-3.161-2.475c5.245-3.686,10.021-7.94,14.297-12.645
			c1.85,2.722,4.884,4.982,7.63,6.954c6.151,4.417,13.092,7.893,19.654,11.659c13.315,7.643,28.663,15.198,38.424,27.535
			C501.147,467.754,501.165,472.887,497.237,478.952z"/>
	</g>
</g>
<g>
</g>
<g>
</g>
<g>
</g>
<g>
</g>
<g>
</g>
<g>
</g>
<g>
</g>
<g>
</g>
<g>
</g>
<g>
</g>
<g>
</g>
<g>
</g>
<g>
</g>
<g>
</g>
<g>
</g>
</svg>
